# xmcd
#
# Track frame offsets: 
#        182
#        25862
#        31785
#        43035
#        53532
#        66132
#        76412
#        90490
#        101682
#        111885
#        127705
#        150200
#        167452
#        179005
#        201500
#        220327
#
# Disc length: 3163 seconds
#
# Revision: 7
# Processed by: cddbd v1.5.2PL0 Copyright (c) Steve Scherf et al.
# Submitted via: ExactAudioCopyFreeDBPlugin 1.0
#
DISCID=c60c5910
DTITLE=Eric Clapton - The Magic of Eric Clapton
DYEAR=1991
DGENRE=Blues
TTITLE0=She's So Respectable
TTITLE1=Choker
TTITLE2=Shake Drive
TTITLE3=Got To Hurry
TTITLE4=Freight Loader
TTITLE5=A Certain Girl
TTITLE6=Dragging My Tail
TTITLE7=For Your Love
TTITLE8=I Wish You Would
TTITLE9=Louise
TTITLE10=Five Long Years
TTITLE11=Early In The Morning
TTITLE12=Pounds And Stomps
TTITLE13=The First Time I Met The Blues
TTITLE14=Stormy Monday Blues
TTITLE15=Big Boss Man
EXTD=YEAR: 1990
EXTT0=
EXTT1=
EXTT2=
EXTT3=
EXTT4=
EXTT5=
EXTT6=
EXTT7=
EXTT8=
EXTT9=
EXTT10=
EXTT11=
EXTT12=
EXTT13=
EXTT14=
EXTT15=
PLAYORDER=
